<svg width="586" height="550" viewBox="0 0 586 550" fill="none" xmlns="http://www.w3.org/2000/svg">
<path d="M0 465.744L76.5273 420.711C91.289 446.16 104.719 467.708 136.934 467.708C167.812 467.708 187.281 455.954 187.281 410.271L281.262 99.5144V411.563C281.262 506.219 224.211 549.307 140.965 549.307C65.7851 549.307 22.1445 511.442 0 465.744Z" fill="black" fill-opacity="0.1"/>
<path d="M237.062 89.2762C262.951 89.2762 283.938 69.291 283.938 44.6381C283.938 19.9852 262.951 0 237.062 0C211.174 0 190.188 19.9852 190.188 44.6381C190.188 69.291 211.174 89.2762 237.062 89.2762Z" fill="black" fill-opacity="0.1"/>
<path d="M585.945 176.634L509.414 221.667C494.652 196.21 481.219 174.67 449.004 174.67C418.129 174.67 398.656 186.416 398.656 232.107L304.68 542.86V230.819C304.68 136.163 361.73 93.0751 444.977 93.0751C520.148 93.0751 563.789 130.94 585.937 176.641" fill="black" fill-opacity="0.1"/>
</svg>
